<svg height="69px" viewBox="0 0 512 512" width="69px" xmlns="http://www.w3.org/2000/svg"><path d="m196 211c-2.695312 0-5.390625-.71875-7.808594-2.195312l-159.390625-97.550782c-18.035156-10.984375-28.800781-30.144531-28.800781-51.253906 0-26.660156 17.886719-50.390625 43.507812-57.699219 25.355469-7.28125 54.847657 3.660157 68.746094 26.5l96.550782 159.390625c3.601562 5.90625 2.691406 13.523438-2.199219 18.414063-2.886719 2.902343-6.738281 4.394531-10.605469 4.394531zm0 0" fill="#53433f"/><path d="m51.769531 31.144531c-.015625 0-.015625.011719-.03125.011719-12.800781 3.648438-21.738281 15.515625-21.738281 28.84375 0 10.5625 5.390625 20.140625 14.414062 25.648438l106.601563 64.367187-64.367187-105.601563c-7.34375-12.03125-22.441407-16.863281-34.878907-13.269531zm0 0" fill="#c6715a"/><path d="m316 211c-3.867188 0-7.71875-1.492188-10.605469-4.394531-4.890625-4.894531-5.800781-12.496094-2.195312-18.414063l96.546875-159.394531c17.429687-28.636719 58.34375-37.148437 85.722656-17.914063.015625 0 .015625 0 .015625.015626 15.980469 11.234374 25.515625 29.589843 25.515625 49.101562 0 21.109375-10.765625 40.269531-28.800781 51.253906l-158.390625 97.550782c-2.417969 1.476562-5.128906 2.195312-7.808594 2.195312zm0 0" fill="#3e322e"/><path d="m425.351562 44.414062-64.367187 105.601563 105.601563-64.367187c9.023437-5.507813 14.414062-15.085938 14.414062-25.648438 0-9.757812-4.773438-18.941406-12.773438-24.578125-13.914062-9.734375-33.628906-6.160156-42.875 8.992187zm0 0" fill="#b35f49"/><path d="m451 211c0-115.800781-87.597656-211-195-211s-195 95.199219-195 211c0 96.300781 61.199219 180.097656 146.699219 203.800781l-11.699219 82.199219h120l-11.699219-82.199219c85.5-23.703125 146.699219-107.5 146.699219-203.800781zm0 0" fill="#725d57"/><path d="m304.300781 414.800781 11.699219 82.199219h-60v-497c107.402344 0 195 95.199219 195 211 0 96.300781-61.199219 180.097656-146.699219 203.800781zm0 0" fill="#68544f"/><path d="m361 196c0 8.285156-6.714844 15-15 15s-15-6.714844-15-15 6.714844-15 15-15 15 6.714844 15 15zm0 0" fill="#3e322e"/><path d="m181 196c0 8.285156-6.714844 15-15 15s-15-6.714844-15-15 6.714844-15 15-15 15 6.714844 15 15zm0 0" fill="#53433f"/><path d="m361 256v5.097656c0 29.101563-5.699219 57.300782-16.800781 84.300782-9.597657 22.800781-22.800781 44.800781-39.300781 63.402343 12.300781 19.5 26.101562 50.398438 26.101562 58.199219 0 24.898438-20.097656 45-45 45-11.398438 0-21.898438-4.5-30-11.398438-8.101562 6.898438-18.601562 11.398438-30 11.398438-24.902344 0-45-20.101562-45-45 0-7.800781 2.101562-15.601562 6-22.5l20.398438-35.398438c-16.796876-18.601562-30-40.601562-39.597657-63.703124-11.101562-27-16.800781-55.199219-16.800781-84.300782 0-8.101562 6.597656-17.398437 15-17.398437s15 3.898437 15 12.300781v2.699219c0 27.601562 4.800781 51.898437 14.398438 75 9.601562 23.398437 23.402343 45.101562 41.101562 62.796875 4.800781 4.804687 6 12.003906 2.398438 18.003906-11.398438 19.796875-18.898438 32.996094-24.296876 41.398438-.300781 1.199218-.902343 2.398437-1.5 3.601562-1.5 2.398438-2.101562 4.796875-2.101562 7.5 0 8.398438 6.597656 15 15 15s15-6.601562 15-15c0-8.402344 6.597656-15 15-15s15 6.597656 15 15c0 8.398438 6.597656 15 15 15s15-6.601562 15-15c-1.199219-7.5-20.398438-40.800781-27-51-.300781-.601562-.601562-.902344-.898438-1.5-3.300781-5.402344-2.703124-12.601562 1.199219-17.402344.898438-.601562 1.796875-1.5 2.398438-2.101562 17.101562-17.398438 30.601562-38.796875 39.902343-61.296875 9.597657-23.101563 14.398438-47.398438 14.398438-72.601563 0-8.101562 6.597656-17.398437 15-17.398437s15 3.898437 15 12.300781zm0 0" fill="#68544f"/><path d="m301 256c0 8.398438-6.597656 15-15 15h-60c-8.402344 0-15-6.601562-15-15 0-8.402344 6.597656-15 15-15h60c8.402344 0 15 6.597656 15 15zm0 0" fill="#53433f"/><path d="m301 316c0 8.398438-6.597656 15-15 15h-60c-8.402344 0-15-6.601562-15-15 0-8.402344 6.597656-15 15-15h60c8.402344 0 15 6.597656 15 15zm0 0" fill="#53433f"/><path d="m286 331h-30v-30h30c8.402344 0 15 6.597656 15 15 0 8.398438-6.597656 15-15 15zm0 0" fill="#3e322e"/><path d="m286 271h-30v-30h30c8.402344 0 15 6.597656 15 15 0 8.398438-6.597656 15-15 15zm0 0" fill="#3e322e"/><path d="m361 256v5.097656c0 29.101563-5.699219 57.300782-16.800781 84.300782-9.597657 22.800781-22.800781 44.800781-39.300781 63.402343 12.300781 19.5 26.101562 50.398438 26.101562 58.199219 0 24.898438-20.097656 45-45 45-11.398438 0-21.898438-4.5-30-11.398438v-48.601562c8.402344 0 15 6.597656 15 15 0 8.398438 6.597656 15 15 15s15-6.601562 15-15c-1.199219-7.5-20.398438-40.800781-27-51-.300781-.601562-.601562-.902344-.898438-1.5-3.300781-5.398438-2.703124-12.601562 1.199219-17.402344.898438-.601562 1.796875-1.5 2.398438-2.097656 17.101562-17.402344 30.601562-38.800781 39.902343-61.300781 9.597657-23.097657 14.398438-47.398438 14.398438-72.597657 0-8.101562 6.597656-17.402343 15-17.402343s15 3.898437 15 12.300781zm0 0" fill="#53433f"/></svg>