<?xml version="1.0"?>
<svg xmlns="http://www.w3.org/2000/svg" xmlns:xlink="http://www.w3.org/1999/xlink" xmlns:svgjs="http://svgjs.com/svgjs" version="1.1" width="69px" height="69px" x="0" y="0" viewBox="0 0 464 464" style="enable-background:new 0 0 512 512" xml:space="preserve" class=""><g>
<g xmlns="http://www.w3.org/2000/svg">
	<path style="" d="M408,376h24c17.673,0,32,14.327,32,32h-56c-8.837,0-16-7.163-16-16v-16H408z" fill="#fce9cc" data-original="#fce9cc" class=""/>
	<path style="" d="M304,424h40c17.673,0,32,14.327,32,32h-72V424z" fill="#fce9cc" data-original="#fce9cc" class=""/>
</g>
<g xmlns="http://www.w3.org/2000/svg">
	<path style="" d="M240,0L240,0c17.673,0,32,14.327,32,32l0,0c0,17.673-14.327,32-32,32l0,0c-17.673,0-32-14.327-32-32   l0,0C208,14.327,222.327,0,240,0z" fill="#e1a126" data-original="#592c02" class=""/>
	<path style="" d="M432,0L432,0c17.673,0,32,14.327,32,32l0,0c0,17.673-14.327,32-32,32l0,0c-17.673,0-32-14.327-32-32   l0,0C400,14.327,414.327,0,432,0z" fill="#e1a126" data-original="#592c02" class=""/>
</g>
<path xmlns="http://www.w3.org/2000/svg" style="" d="M16,80h8c26.51,0,48,21.49,48,48v224c0,35.346,28.654,64,64,64h8v32h-8c-53.019,0-96-42.981-96-96  V128c0-8.837-7.163-16-16-16h-8c-8.837,0-16-7.163-16-16S7.163,80,16,80z" fill="#3e250d" data-original="#763a02" class=""/>
<path xmlns="http://www.w3.org/2000/svg" style="" d="M269.848,128H264c-79.529,0-144,64.471-144,144v125.848C120,434.383,149.617,464,186.152,464l0,0  c18.981-0.005,37.046-8.163,49.6-22.4l83.704-94.848c10.661-12.085,16.543-27.645,16.544-43.76v-108.8  c0.022-36.535-29.577-66.17-66.112-66.192C269.875,128,269.861,128,269.848,128L269.848,128z" fill="#e1a126" data-original="#592c02" class=""/>
<g xmlns="http://www.w3.org/2000/svg">
	<path style="" d="M168,432v-88c0-26.51,21.49-48,48-48s48,21.49,48,48v72h32c8.837,0,16,7.163,16,16v16   c0,8.837-7.163,16-16,16h-96C182.327,464,168,449.673,168,432z" fill="#3e250d" data-original="#763a02" class=""/>
	<path style="" d="M336,248v4.12c-0.002,12.731,5.055,24.941,14.056,33.944l62.624,62.624   c6.246,6.248,6.246,16.376,0,22.624l-17.376,17.376c-6.248,6.246-16.376,6.246-22.624,0l-77.256-77.256   c-15-15.004-23.426-35.352-23.424-56.568V248H336z" fill="#3e250d" data-original="#763a02" class=""/>
	<path style="" d="M336,0L336,0c61.856,0,112,50.144,112,112l0,0c0,61.856-50.144,112-112,112l0,0   c-61.856,0-112-50.144-112-112l0,0C224,50.144,274.144,0,336,0z" fill="#3e250d" data-original="#763a02" class=""/>
</g>
<path xmlns="http://www.w3.org/2000/svg" style="" d="M262.624,110.624c-12.497-12.496-12.498-32.758-0.001-45.255c0,0,0.001-0.001,0.001-0.001  l2.744-2.744c12.496-12.497,32.758-12.498,45.255-0.001c0,0,0.001,0.001,0.001,0.001l2.744,2.744  c12.496,12.497,32.758,12.498,45.255,0.001c0,0,0.001-0.001,0.001-0.001l2.744-2.744c12.496-12.497,32.758-12.498,45.255-0.001  c0,0,0.001,0.001,0.001,0.001l2.744,2.744c12.497,12.496,12.498,32.758,0.001,45.255c0,0-0.001,0.001-0.001,0.001  c-6.001,6.003-9.37,14.144-9.368,22.632V144c0,26.51-21.49,48-48,48h-32c-26.51,0-48-21.49-48-48v-10.744  C272,124.767,268.628,116.626,262.624,110.624L262.624,110.624z" fill="#fce9cc" data-original="#fce9cc" class=""/>
<g xmlns="http://www.w3.org/2000/svg">
	<path style="" d="M288,80L288,80c4.418,0,8,3.582,8,8l0,0c0,4.418-3.582,8-8,8l0,0c-4.418,0-8-3.582-8-8l0,0   C280,83.582,283.582,80,288,80z" fill="#3e250d" data-original="#763a02" class=""/>
	<path style="" d="M384,80L384,80c4.418,0,8,3.582,8,8l0,0c0,4.418-3.582,8-8,8l0,0c-4.418,0-8-3.582-8-8l0,0   C376,83.582,379.582,80,384,80z" fill="#3e250d" data-original="#763a02" class=""/>
	<path style="" d="M360,136v8c0,4.418-3.582,8-8,8s-8-3.582-8-8v-16h8v-16h-32v16h8v16c0,4.418-3.582,8-8,8   s-8-3.582-8-8v-8h-16v8c-0.058,13.197,10.593,23.943,23.79,24.002c5.995,0.027,11.781-2.201,16.21-6.242   c9.75,8.894,24.864,8.2,33.758-1.55c4.04-4.429,6.268-10.215,6.242-16.21v-8H360z" fill="#3e250d" data-original="#763a02" class=""/>
</g>
<g xmlns="http://www.w3.org/2000/svg">
</g>
<g xmlns="http://www.w3.org/2000/svg">
</g>
<g xmlns="http://www.w3.org/2000/svg">
</g>
<g xmlns="http://www.w3.org/2000/svg">
</g>
<g xmlns="http://www.w3.org/2000/svg">
</g>
<g xmlns="http://www.w3.org/2000/svg">
</g>
<g xmlns="http://www.w3.org/2000/svg">
</g>
<g xmlns="http://www.w3.org/2000/svg">
</g>
<g xmlns="http://www.w3.org/2000/svg">
</g>
<g xmlns="http://www.w3.org/2000/svg">
</g>
<g xmlns="http://www.w3.org/2000/svg">
</g>
<g xmlns="http://www.w3.org/2000/svg">
</g>
<g xmlns="http://www.w3.org/2000/svg">
</g>
<g xmlns="http://www.w3.org/2000/svg">
</g>
<g xmlns="http://www.w3.org/2000/svg">
</g>
</g></svg>
