<?xml version="1.0"?>
<svg xmlns="http://www.w3.org/2000/svg" xmlns:xlink="http://www.w3.org/1999/xlink" xmlns:svgjs="http://svgjs.com/svgjs" version="1.1" width="69" height="69" x="0" y="0" viewBox="0 0 511.5 511.5" style="enable-background:new 0 0 512 512" xml:space="preserve" class=""><g><g xmlns="http://www.w3.org/2000/svg" id="XMLID_2052_"><path id="XMLID_1741_" d="m65.608 10c-.424 0-.844.013-1.267.016-10.312 19.075-16.168 40.911-16.168 64.116 0 74.57 60.451 135.021 135.021 135.021.423 0 .844-.012 1.267-.016 10.312-19.074 16.168-40.911 16.168-64.116-.001-74.57-60.451-135.021-135.021-135.021z" fill="#ffa96b" data-original="#ffa96b" style="" class=""/><path id="XMLID_1740_" d="m445.892 10c.424 0 .844.013 1.267.016 10.312 19.074 16.168 40.911 16.168 64.116 0 74.57-60.451 135.021-135.021 135.021-.423 0-.844-.012-1.267-.016-10.312-19.074-16.168-40.911-16.168-64.116.001-74.57 60.451-135.021 135.021-135.021z" fill="#ffa96b" data-original="#ffa96b" style="" class=""/><path id="XMLID_1733_" d="m255.579 38.788c-98.422 0-181.873 72.359-195.814 169.789l-5.368 37.513c-10.968 76.65 48.505 145.24 125.937 145.24h150.491c77.431 0 136.905-68.59 125.937-145.24l-5.368-37.513c-13.942-97.43-97.393-169.789-195.815-169.789z" fill="#ffee80" data-original="#ffee80" style="" class=""/><g fill="#a7bdcd"><path id="XMLID_1732_" d="m114.917 265.004c0-20.538-16.649-37.186-37.186-37.186-8.111 0-15.61 2.605-21.723 7.013l-1.611 11.259c-2.47 17.261-1.357 34.109 2.718 49.861 5.901 3.939 12.989 6.239 20.616 6.239 20.537 0 37.186-16.649 37.186-37.186z" fill="#f1813e" data-original="#a7bdcd" style="" class=""/><path id="XMLID_1731_" d="m436.669 256.127c-15.565 0-28.182 12.618-28.182 28.182 0 15.565 12.618 28.183 28.182 28.183 4.747 0 9.216-1.179 13.14-3.251 5.156-13.546 8.046-28.141 8.237-43.284-5.168-6.016-12.825-9.83-21.377-9.83z" fill="#f1813e" data-original="#a7bdcd" style="" class=""/><path id="XMLID_1717_" d="m113.315 99.156c2.295 13.258 13.846 23.344 27.76 23.344 15.565 0 28.182-12.618 28.182-28.183 0-11.787-7.239-21.878-17.51-26.085-14.055 8.679-26.972 19.071-38.432 30.924z" fill="#f1813e" data-original="#a7bdcd" style="" class=""/></g><path id="XMLID_1700_" d="m313.653 224c5.154-26.961 28.733-46.459 56.182-46.459h21.022l-9.846 25.752c-4.769 12.471-16.736 20.707-30.087 20.707z" fill="#ffa96b" data-original="#ffa96b" style="" class=""/><path id="XMLID_1699_" d="m197.847 224c-5.154-26.961-28.733-46.459-56.182-46.459h-21.022l9.846 25.752c4.769 12.471 16.736 20.707 30.087 20.707z" fill="#ffa96b" data-original="#ffa96b" style="" class=""/><path id="XMLID_2042_" d="m201.448 313.443c-35.988 0-65.162 29.174-65.162 65.163s29.174 65.163 65.162 65.163c22.671 0 42.629-11.583 54.302-29.148 11.673 17.565 31.631 29.148 54.302 29.148 35.988 0 65.163-29.174 65.163-65.163s-29.174-65.163-65.163-65.163z" fill="#f1d3b9" data-original="#e2e9ee" style="" class=""/><path id="XMLID_2041_" d="m328.268 441.186c-6.311 34.315-36.378 60.314-72.518 60.314-36.145 0-66.216-26.007-72.521-60.33l72.35-20.715z" fill="#f1d3b9" data-original="#e2e9ee" style="" class=""/><path id="XMLID_1696_" d="m298.764 349.933-26.369 27.703c-9.057 9.515-24.233 9.515-33.29 0l-26.369-27.703c-10.413-10.94-2.658-29.027 12.445-29.027h61.137c15.104 0 22.859 18.087 12.446 29.027z" fill="#000000" data-original="#6d92ac" style="" class=""/><circle id="XMLID_1680_" cx="235.526" cy="119.224" fill="#f1813e" r="22.724" data-original="#a7bdcd" style="" class=""/><circle id="XMLID_1679_" cx="336.377" cy="84.398" fill="#f1813e" r="25.179" data-original="#a7bdcd" style="" class=""/><g id="XMLID_22_"><path id="XMLID_876_" d="m461.293 207.16c-2.501-17.48-7.155-34.372-13.802-50.383 16.922-24.323 25.836-52.77 25.836-82.646 0-24.033-6.007-47.849-17.371-68.871-1.734-3.21-5.079-5.22-8.728-5.245l-.45-.006c-.295-.005-.59-.01-.887-.01-40.595 0-78.931 16.835-106.363 46.444-11.8-5.204-24.126-9.321-36.857-12.278-5.377-1.248-10.753 2.1-12.003 7.479-1.249 5.38 2.1 10.753 7.479 12.003 5.14 1.193 10.196 2.609 15.164 4.221-7.414 6.455-12.114 15.95-12.114 26.528 0 19.397 15.781 35.179 35.179 35.179 17.879 0 32.676-13.411 34.884-30.7 37.319 29.395 63.283 72.546 70.233 121.117l5.367 37.515v.002c-3.285-.91-6.711-1.383-10.193-1.383-21.054 0-38.183 17.129-38.183 38.183 0 19.741 15.06 36.03 34.293 37.985-11.016 19.335-27.567 35.475-48.269 46.075-2.192-16.194-9.557-31.158-21.311-42.911-3.906-3.904-10.236-3.904-14.143 0-3.905 3.905-3.905 10.237 0 14.143 10.419 10.419 16.157 24.271 16.157 39.005 0 3.605-.358 7.126-1.022 10.541l-21.344-12.927c-4.725-2.859-10.872-1.351-13.734 3.373-2.861 4.724-1.351 10.873 3.373 13.734l24.214 14.666c-6.106 9.659-15.12 17.297-25.81 21.676l-16.284-16.284c-3.906-3.904-10.236-3.904-14.143 0-3.905 3.905-3.905 10.237 0 14.143l6.135 6.135c-16.228-1.01-31.129-9.118-40.85-22.222v-18.198c5.227-1.652 9.982-4.607 13.888-8.711l26.369-27.703c7.621-8.006 9.649-19.291 5.294-29.45-1.451-3.385-3.492-6.33-5.963-8.77-8.607-8.833-13.348-20.456-13.348-32.813v-29.796c0-5.522-4.478-10-10-10s-10 4.478-10 10v29.795c0 8.748 1.67 17.237 4.848 25.111h-42.172c3.177-7.874 4.844-16.364 4.844-25.111v-29.795c0-5.522-4.478-10-10-10s-10 4.478-10 10v29.795c0 12.357-4.741 23.979-13.348 32.813-2.471 2.439-4.512 5.385-5.963 8.77-4.355 10.159-2.327 21.444 5.294 29.45l26.369 27.703c3.906 4.104 8.66 7.059 13.888 8.711v18.198c-9.72 13.104-24.621 21.212-40.85 22.222l6.135-6.135c3.905-3.905 3.905-10.237 0-14.143-3.906-3.904-10.236-3.904-14.143 0l-16.284 16.284c-10.69-4.379-19.703-12.018-25.81-21.676l24.214-14.666c4.724-2.861 6.234-9.011 3.373-13.734s-9.009-6.233-13.734-3.373l-21.344 12.927c-.663-3.414-1.022-6.936-1.022-10.541 0-14.769 5.761-28.644 16.221-39.07 3.912-3.898 3.922-10.23.022-14.142-3.897-3.911-10.23-3.922-14.142-.022-11.845 11.807-19.249 26.864-21.418 43.164-24.462-12.425-43.161-32.562-53.829-56.574 1.519.147 3.05.229 4.591.229 26.019 0 47.187-21.167 47.187-47.186s-21.168-47.187-47.187-47.187c-3.161 0-6.277.312-9.317.919l1.251-8.742c4.951-34.597 19.544-66.441 41.013-92.524 7.02 9.223 18.096 15.03 30.398 15.03 21.054 0 38.182-17.129 38.182-38.183 0-9.361-3.384-18.094-9.199-24.864 13.488-6.958 27.923-12.325 43.064-15.831 5.381-1.246 8.732-6.617 7.486-11.998-1.246-5.38-6.615-8.733-11.998-7.486-12.688 2.938-24.975 7.028-36.741 12.199-27.421-29.539-65.725-46.337-106.257-46.337-.297 0-.592.005-.887.01l-.45.006c-3.648.025-6.993 2.035-8.728 5.244-11.363 21.023-17.37 44.839-17.37 68.872 0 29.717 8.847 58.07 25.626 82.331-6.717 16.104-11.416 33.103-13.934 50.698l-5.367 37.513c-4.533 31.676 1.765 62.844 18.212 90.135 15.053 24.978 37.87 44.676 64.561 55.885.515 3.17 1.232 6.272 2.132 9.297l-19.666 11.911c-4.724 2.861-6.234 9.011-3.373 13.734 1.881 3.104 5.181 4.821 8.563 4.821 1.764 0 3.552-.468 5.171-1.448l17.598-10.658c6.876 10.99 16.5 20.093 27.918 26.312l-16.184 16.184c-3.905 3.905-3.905 10.237 0 14.143 1.953 1.952 4.512 2.929 7.071 2.929s5.118-.977 7.071-2.929l14.905-14.905c12.769 30.607 42.925 51.416 77.272 51.416 34.345 0 64.503-20.809 77.273-51.416l14.905 14.905c1.953 1.952 4.512 2.929 7.071 2.929s5.118-.977 7.071-2.929c3.905-3.905 3.905-10.237 0-14.143l-16.184-16.184c11.418-6.219 21.042-15.322 27.918-26.312l17.598 10.658c1.62.98 3.406 1.448 5.171 1.448 3.383 0 6.683-1.717 8.563-4.821 2.861-4.724 1.351-10.873-3.373-13.734l-19.666-11.911c.914-3.074 1.643-6.227 2.159-9.451 26.576-11.254 49.285-30.939 64.265-55.856 16.391-27.262 22.663-58.387 18.138-90.009zm-124.916-107.584c-8.369 0-15.179-6.81-15.179-15.179s6.81-15.179 15.179-15.179 15.179 6.81 15.179 15.179-6.81 15.179-15.179 15.179zm-258.647 138.241c14.99 0 27.187 12.196 27.187 27.187s-12.196 27.186-27.187 27.186c-4.186 0-8.255-.959-11.955-2.774-2.917-13.428-3.53-27.57-1.478-41.909l.952-6.654c3.834-1.99 8.081-3.036 12.481-3.036zm81.527-143.5c0 10.026-8.156 18.183-18.182 18.183-7.153 0-13.432-4.118-16.389-10.282 8.444-8.246 17.662-15.71 27.53-22.27 4.379 3.387 7.041 8.632 7.041 14.369zm-101.084-20.185c0-18.719 4.223-37.277 12.254-54.04 31.188 1.191 60.548 13.922 82.7 35.656-18.449 10.461-35.297 23.766-49.991 39.613-11.325 12.214-21.036 25.599-29.027 39.893-10.458-18.576-15.936-39.425-15.936-61.122zm161.806 268.906c-2.946-3.095-1.959-6.472-1.398-7.78s2.327-4.352 6.601-4.352h61.137c4.273 0 6.04 3.043 6.601 4.352s1.548 4.686-1.398 7.78l-26.369 27.703c-2.475 2.599-5.813 4.03-9.401 4.03s-6.927-1.432-9.401-4.03zm35.771 148.462c-25.662 0-48.244-15.254-58.261-37.837 1.312.068 2.631.105 3.959.105 20.736 0 40.244-8.487 54.302-23.197 14.058 14.71 33.565 23.197 54.302 23.197 1.328 0 2.647-.037 3.959-.105-10.017 22.583-32.601 37.837-58.261 37.837zm102.497-435.629c22.165-21.811 51.571-34.585 82.826-35.779 8.031 16.762 12.254 35.321 12.254 54.04 0 21.838-5.54 42.779-16.109 61.424-8.013-14.39-17.767-27.861-29.153-40.148-14.646-15.805-31.434-29.083-49.818-39.537zm78.422 246.62c-10.026 0-18.183-8.156-18.183-18.182s8.156-18.183 18.183-18.183c4.121 0 8.064 1.409 11.248 3.919-.516 10.918-2.517 21.557-5.902 31.651-1.714.527-3.502.795-5.346.795z" fill="#161616" data-original="#000000" style="" class=""/><path id="XMLID_1004_" d="m313.653 234h37.271c17.376 0 33.221-10.905 39.428-27.136l9.847-25.752c1.175-3.074.763-6.529-1.104-9.241-1.865-2.711-4.946-4.33-8.237-4.33h-21.022c-32.199 0-59.958 22.955-66.004 54.581-.56 2.928.216 5.953 2.116 8.251 1.899 2.297 4.724 3.627 7.705 3.627zm56.182-46.459h6.493l-4.658 12.181c-3.266 8.54-11.603 14.278-20.746 14.278h-23.486c7.767-15.856 24.056-26.459 42.397-26.459z" fill="#161616" data-original="#000000" style="" class=""/><path id="XMLID_1013_" d="m141.665 167.541h-21.022c-3.291 0-6.372 1.619-8.237 4.33-1.866 2.712-2.278 6.167-1.104 9.241l9.847 25.752c6.206 16.231 22.051 27.136 39.427 27.136h37.271c2.981 0 5.807-1.33 7.706-3.627 1.9-2.298 2.676-5.323 2.116-8.251-6.046-31.626-33.805-54.581-66.004-54.581zm18.911 46.459c-9.144 0-17.48-5.738-20.746-14.278l-4.658-12.181h6.493c18.341 0 34.63 10.603 42.397 26.459z" fill="#161616" data-original="#000000" style="" class=""/><path id="XMLID_1019_" d="m202.802 119.225c0 18.044 14.68 32.724 32.724 32.724s32.725-14.68 32.725-32.724-14.682-32.725-32.726-32.725-32.723 14.681-32.723 32.725zm32.723-12.725c7.017 0 12.725 5.708 12.725 12.725 0 7.016-5.708 12.724-12.725 12.724-7.016 0-12.724-5.708-12.724-12.724.001-7.017 5.709-12.725 12.724-12.725z" fill="#161616" data-original="#000000" style="" class=""/><path id="XMLID_1024_" d="m255.58 48.79c2.63 0 5.21-1.07 7.069-2.931 1.86-1.859 2.931-4.439 2.931-7.069s-1.07-5.21-2.931-7.07c-1.859-1.87-4.439-2.93-7.069-2.93s-5.21 1.06-7.07 2.93c-1.86 1.86-2.93 4.43-2.93 7.07 0 2.63 1.069 5.21 2.93 7.069 1.86 1.861 4.44 2.931 7.07 2.931z" fill="#161616" data-original="#000000" style="" class=""/></g></g></g></svg>
