<?xml version="1.0"?>
<svg xmlns="http://www.w3.org/2000/svg" xmlns:xlink="http://www.w3.org/1999/xlink" xmlns:svgjs="http://svgjs.com/svgjs" version="1.1" width="72" height="72" x="0" y="0" viewBox="0 0 512 512" style="enable-background:new 0 0 512 512" xml:space="preserve" class=""><g>
<path xmlns="http://www.w3.org/2000/svg" style="" d="M466,0h-30c-41.353,0-75,33.647-75,75l45,45c41.353,0,75-33.647,75-75V15C481,6.709,474.291,0,466,0z  " fill="#3c3a41" data-original="#3c3a41" class=""/>
<path xmlns="http://www.w3.org/2000/svg" style="" d="M76,0H46c-8.291,0-15,6.709-15,15v30c0,41.353,33.647,75,75,75h14.326L151,75  C151,33.647,117.353,0,76,0z" fill="#57555c" data-original="#57555c" class=""/>
<path xmlns="http://www.w3.org/2000/svg" style="" d="M367,42.9C336.4,15.3,297.7,0,256.901,0H256c-5.4,0-10.8,0.3-16.199,0.899  C156.4,8.699,91,84.699,91,172.299V197c0,43.799,17.1,85.199,47.999,116.1c33.6,34.2,56.1,70.499,66.901,108.3l5.7,19.801  c1.8,6.299,7.8,10.8,14.399,10.8h60c6.599,0,12.599-4.501,14.399-10.8l5.7-19.801c10.801-37.8,33.301-74.099,66.901-108.3  C403.9,282.199,421,240.799,421,197v-31C421,119.5,401.201,74.099,367,42.9z" fill="#787780" data-original="#787780" class=""/>
<g xmlns="http://www.w3.org/2000/svg">
	<path style="" d="M421,166v31c0,43.799-17.1,85.199-47.999,116.1c-33.6,34.2-56.1,70.499-66.901,108.3l-5.7,19.801   c-1.8,6.299-7.8,10.8-14.399,10.8h-30V0h0.901C297.7,0,336.4,15.3,367,42.9C401.201,74.099,421,119.5,421,166z" fill="#57555c" data-original="#57555c" class=""/>
	<circle style="" cx="166" cy="135" r="15" fill="#57555c" data-original="#57555c" class=""/>
</g>
<circle xmlns="http://www.w3.org/2000/svg" style="" cx="346" cy="135" r="15" fill="#3c3a41" data-original="#3c3a41" class=""/>
<path xmlns="http://www.w3.org/2000/svg" style="" d="M360.399,231.2l-60,210c-1.8,6.299-7.8,10.8-14.399,10.8h-60c-6.599,0-12.599-4.501-14.399-10.8  l-60-210c-2.401-8.101,2.399-16.201,10.199-18.602h188.4C358.001,214.999,362.8,223.1,360.399,231.2z" fill="#8b8892" data-original="#8b8892" class=""/>
<path xmlns="http://www.w3.org/2000/svg" style="" d="M360.399,231.2l-60,210c-1.8,6.299-7.8,10.8-14.399,10.8h-30V212.599h94.2  C358.001,214.999,362.8,223.1,360.399,231.2z" fill="#787780" data-original="#787780" class=""/>
<path xmlns="http://www.w3.org/2000/svg" style="" d="M451,452c0,32.999-27.001,60-60,60h-90c-17.999,0-34.2-8.101-45-20.7c-9.6-10.501-15-24.3-15-39.3  v-15c0-8.401,6.599-15,15-15s15,6.599,15,15v15c0,16.5,13.5,30,30,30h90c16.5,0,30-13.5,30-30s-13.5-30-30-30h-15  c-8.401,0-15-6.601-15-15c0-8.401,6.599-15,15-15h15C423.999,392,451,418.999,451,452z" fill="#ff6200" data-original="#ff6200"/>
<g xmlns="http://www.w3.org/2000/svg">
	<path style="" d="M301,317c0,8.399-6.599,15-15,15h-60c-8.401,0-15-6.601-15-15c0-8.401,6.599-15,15-15h60   C294.401,302,301,308.599,301,317z" fill="#787780" data-original="#787780" class=""/>
	<path style="" d="M301,257c0,8.399-6.599,15-15,15h-60c-8.401,0-15-6.601-15-15c0-8.401,6.599-15,15-15h60   C294.401,242,301,248.599,301,257z" fill="#787780" data-original="#787780" class=""/>
	<path style="" d="M286,377c0,8.399-6.599,15-15,15h-30c-8.401,0-15-6.601-15-15c0-8.401,6.599-15,15-15h30   C279.401,362,286,368.599,286,377z" fill="#787780" data-original="#787780" class=""/>
</g>
<path xmlns="http://www.w3.org/2000/svg" style="" d="M331,437c0,8.399-6.599,15-15,15H196c-8.401,0-15-6.601-15-15c0-8.401,6.599-15,15-15h120  C324.401,422,331,428.599,331,437z" fill="#57555c" data-original="#57555c" class=""/>
<path xmlns="http://www.w3.org/2000/svg" style="" d="M451,452c0,32.999-27.001,60-60,60h-90c-17.999,0-34.2-8.101-45-20.7V422c8.401,0,15,6.599,15,15v15  c0,16.5,13.5,30,30,30h90c16.5,0,30-13.5,30-30s-13.5-30-30-30h-15c-8.401,0-15-6.601-15-15c0-8.401,6.599-15,15-15h15  C423.999,392,451,418.999,451,452z" fill="#eb4f00" data-original="#eb4f00"/>
<path xmlns="http://www.w3.org/2000/svg" style="" d="M331,437c0,8.399-6.599,15-15,15h-60v-30h60C324.401,422,331,428.599,331,437z" fill="#3c3a41" data-original="#3c3a41" class=""/>
<g xmlns="http://www.w3.org/2000/svg">
	<path style="" d="M286,377c0,8.399-6.599,15-15,15h-15v-30h15C279.401,362,286,368.599,286,377z" fill="#57555c" data-original="#57555c" class=""/>
	<path style="" d="M301,317c0,8.399-6.599,15-15,15h-30v-30h30C294.401,302,301,308.599,301,317z" fill="#57555c" data-original="#57555c" class=""/>
	<path style="" d="M286,272h-30v-30h30c8.401,0,15,6.599,15,15C301,265.399,294.401,272,286,272z" fill="#57555c" data-original="#57555c" class=""/>
</g>
<g xmlns="http://www.w3.org/2000/svg">
</g>
<g xmlns="http://www.w3.org/2000/svg">
</g>
<g xmlns="http://www.w3.org/2000/svg">
</g>
<g xmlns="http://www.w3.org/2000/svg">
</g>
<g xmlns="http://www.w3.org/2000/svg">
</g>
<g xmlns="http://www.w3.org/2000/svg">
</g>
<g xmlns="http://www.w3.org/2000/svg">
</g>
<g xmlns="http://www.w3.org/2000/svg">
</g>
<g xmlns="http://www.w3.org/2000/svg">
</g>
<g xmlns="http://www.w3.org/2000/svg">
</g>
<g xmlns="http://www.w3.org/2000/svg">
</g>
<g xmlns="http://www.w3.org/2000/svg">
</g>
<g xmlns="http://www.w3.org/2000/svg">
</g>
<g xmlns="http://www.w3.org/2000/svg">
</g>
<g xmlns="http://www.w3.org/2000/svg">
</g>
</g></svg>
