<svg id="Capa_1" enable-background="new 0 0 512 512" height="72" viewBox="0 0 512 512" width="72" xmlns="http://www.w3.org/2000/svg"><g><path d="m407 0h-76l-30 20.843v99.157h151l40.803-75.238c-18.999-27.006-50.273-44.762-85.803-44.762z" fill="#ff9100"/><path d="m482.015 134.301c-.389 8.609 6.46 15.699 14.985 15.699 8.291 0 15-6.709 15-15v-30c0-22.462-7.185-43.165-19.197-60.238-24.536 16.075-40.803 43.716-40.803 75.238h15c8.024 0 15.381 6.284 15.015 14.301z" fill="#38211a"/><path d="m151 331h90v91c0 33.137-26.863 60-60 60h-30z" fill="#38211a"/><path d="m166 512c-24.853 0-45-20.147-45-45v-136h60v166c0 8.284-6.716 15-15 15z" fill="#563941"/><path d="m241 123.53-78.6-48.53c-24.849 30.813-41.4 73.738-41.4 120v105.843l30 90.157h75c5.136 0 10.06-.8 15-1.516 50.757-7.355 90-50.72 90-103.484v-106.901z" fill="#704c55"/><path d="m331 286v-106.901l-90-55.569v265.954c50.757-7.355 90-50.72 90-103.484z" fill="#563941"/><path d="m316 0c-26.603 0-51.866 5.614-75 15.278-31.13 13.004-58.292 33.562-78.6 59.722 14.473 37.421 42.936 68.031 78.6 86.4 26.766 13.788 57.471 20.874 90 17.699v-179.099z" fill="#fff5f5"/><path d="m331 179.099v-179.099h-15c-26.603 0-51.866 5.614-75 15.278v146.122c26.766 13.788 57.471 20.874 90 17.699z" fill="#efe2dd"/><circle cx="256" cy="90" fill="#38211a" r="15"/><g><path d="m151 391h-136c-8.291 0-15-6.709-15-15v-15c0-82.705 68.295-151 151-151 49.629 0 90 41.371 90 91s-40.371 90-90 90z" fill="#38211a"/></g></g></svg>