<svg id="Capa_1" enable-background="new 0 0 512 512" height="300" viewBox="0 0 512 512" width="300" xmlns="http://www.w3.org/2000/svg"><g><path d="m512 256c0 14.91-1.28 29.53-3.73 43.74-.58 3.38-1.23 6.74-1.94 10.07-146.04 117.96-354.62 117.96-500.66 0-.71-3.33-1.36-6.69-1.94-10.07-1.46-8.42-2.5-16.99-3.1-25.68-.42-5.96-.63-11.99-.63-18.06 0-46.22 12.25-89.57 33.68-127 44.12-77.07 127.16-129 222.32-129s178.2 51.93 222.32 129c12.98 22.67 22.59 47.52 28.15 73.86 3.46 16.36 5.35 33.28 5.52 50.62.01.84.01 1.68.01 2.52z" fill="#92eaff"/><g><path d="m512 256c0 18.46-1.95 36.47-5.68 53.82-146.04 117.95-354.6 117.95-500.64 0-3.72-17.35-5.68-35.36-5.68-53.82 0-46.22 12.25-89.57 33.68-127 44.12 77.07 127.16 129 222.32 129 35.76 0 69.82-7.33 100.73-20.59 2.17-.93 4.32-1.89 6.46-2.88 1.57-.72 3.12-1.46 4.67-2.21 3.71-1.8 7.37-3.69 10.97-5.66 41.5-22.74 76.01-56.64 99.49-97.66 13.51 23.6 23.38 49.56 28.82 77.1 1.15 5.84 2.11 11.74 2.84 17.71 1.34 10.54 2.02 21.29 2.02 32.19z" fill="#63dbfa"/></g><g><g><path d="m29.648 339.915c-.331-5.095 1.739-11.271 6.335-13.077 2.747-1.079 6.3.127 9.404-1.074 2.874-1.112 5.426-3.11 7.037-5.754 2.674-4.391 2.768-9.806 3.281-14.922.514-5.116 1.817-10.673 5.95-13.731 4.615-3.415 11.044-2.506 16.599-1.056s11.507 3.277 16.881 1.257c3.585-1.347 6.333-4.22 9.316-6.621s6.713-4.472 10.471-3.738c6.375 1.244 8.868 9.412 14.673 12.328 5.015 2.519 11.009.5 16.267-1.46s11.383-3.779 16.232-.954c6.909 4.026 7.14 15.177 14.315 18.706 6.089 2.995 13.966-1.248 19.985 1.886 3.29 1.714 5.177 5.238 6.645 8.645 1.467 3.407 2.806 7.042 5.552 9.536 4.7 4.268 9.676-.203 14.674 2.611 2.149 1.21 3.891 3.285 4.757 5.59.075.2.237.925.382 1.829h-198.756z" fill="#50ba4a"/><path d="m477.719 339.915c.331-5.095-1.739-11.271-6.335-13.077-2.747-1.079-6.3.127-9.404-1.074-2.874-1.112-5.426-3.11-7.037-5.754-2.674-4.391-2.768-9.806-3.281-14.922-.514-5.116-1.817-10.673-5.95-13.731-4.615-3.415-11.044-2.506-16.599-1.056s-11.507 3.277-16.881 1.257c-3.585-1.347-6.333-4.22-9.315-6.621-2.983-2.401-6.713-4.472-10.471-3.738-6.375 1.244-8.868 9.412-14.673 12.328-5.015 2.519-11.009.5-16.267-1.46s-11.383-3.779-16.232-.954c-6.909 4.026-7.14 15.177-14.315 18.706-6.089 2.995-13.966-1.248-19.985 1.886-3.29 1.714-5.178 5.238-6.645 8.645s-2.806 7.042-5.552 9.536c-4.7 4.268-9.676-.203-14.674 2.611-2.149 1.21-3.891 3.285-4.757 5.59-.075.2-.237.925-.382 1.829h198.755z" fill="#50ba4a"/><path d="m506.33 309.81c-.79 3.69-1.66 7.35-2.61 10.97-72.91 56.46-160.31 84.7-247.72 84.7v-65.56c96.37 0 184.2-11.4 250.33-30.11z" fill="#a44e3e"/><g><path d="m506.33 309.81v.03c-.76 3.53-1.59 7.03-2.49 10.49l-.88.69c-72.67 56.37-159.76 84.75-246.96 85.06-86.99.33-174.08-27.27-247.07-82.86-.23-.81-.45-1.62-.66-2.44-.94-3.61-1.81-7.25-2.59-10.92 0-.02-.01-.03-.01-.05 66.13 18.71 153.96 30.11 250.33 30.11s184.2-11.4 250.33-30.11z" fill="#b15848"/></g><path d="m506.33 309.81v.03c-.76 3.53-1.59 7.03-2.49 10.49l-.88.69c-72.67 56.37-159.76 84.75-246.96 85.06v-66.16c96.37 0 184.2-11.4 250.33-30.11z" fill="#a44e3e"/><path d="m463.67 405.72c-5.91 8.2-12.3 16.02-19.12 23.44-2.61 2.84-5.32 5.64-8.12 8.39-15.63 15.36-34.05 29.18-54.14 40.59-23.53 13.38-49.35 23.46-75.66 28.83-2.43.5-4.86.95-7.29 1.37-14.09 2.41-28.57 3.66-43.34 3.66h-.83c-14.49-.05-28.69-1.3-42.51-3.66-2.44-.42-4.88-.87-7.3-1.35-15.3-3.07-30.11-7.5-44.29-13.16-.05-.02-.1-.04-.14-.06-32.23-12.9-61.21-32.16-85.42-56.22-3.14-3.12-6.2-6.33-9.18-9.61-6.4-7.06-12.42-14.47-18-22.22l156.93-23.03c1.02-.15 2.05-.3 3.08-.44 20.06-2.76 40.3-3.77 60.49-3.04 12.67.47 25.33 1.63 37.91 3.48z" fill="#6cdc2d"/><path d="m463.67 405.72c-5.91 8.2-12.3 16.02-19.12 23.44-2.61 2.84-5.32 5.64-8.12 8.39-15.63 15.36-34.05 29.18-54.14 40.59-23.53 13.38-49.35 23.46-75.66 28.83-2.43.5-4.86.95-7.29 1.37-14.09 2.41-28.57 3.66-43.34 3.66v-133.02c4.28 0 8.55.08 12.83.23 12.67.47 25.33 1.63 37.91 3.48z" fill="#5dbf1d"/><path d="m463.67 405.72c-5.91 8.2-12.3 16.02-19.12 23.44-2.61 2.84-5.32 5.64-8.12 8.39h-360.92c-3.14-3.12-6.2-6.33-9.18-9.61-6.4-7.06-12.42-14.47-18-22.22l156.93-23.03c33.65-4.94 67.83-4.94 101.48 0z" fill="#b6e337"/><path d="m463.67 405.72c-5.91 8.2-12.3 16.02-19.12 23.44-2.61 2.84-5.32 5.64-8.12 8.39h-180.43v-58.57c16.96 0 33.92 1.24 50.74 3.71z" fill="#6cdc2d"/><path d="m482.59 375.24c-5.6 10.62-11.93 20.81-18.92 30.48h-415.34c-6.99-9.67-13.32-19.85-18.91-30.48z" fill="#f6ffd9"/><path d="m482.59 375.24c-5.6 10.62-11.93 20.81-18.92 30.48h-207.67v-30.48z" fill="#e2ff94"/><path d="m503.84 320.33c-.03.15-.07.3-.11.45-4.98 19.12-12.13 37.36-21.16 54.46h-147.77c.15-.98.33-1.76.41-1.98.94-2.49 2.82-4.73 5.14-6.04 5.41-3.04 10.78 1.79 15.87-2.82 2.96-2.7 4.41-6.63 6-10.31 1.58-3.69 3.63-7.5 7.18-9.35 6.51-3.39 15.02 1.2 21.61-2.04 7.75-3.81 8-15.87 15.47-20.22 5.24-3.05 11.87-1.09 17.55 1.03s12.16 4.3 17.59 1.58c6.27-3.15 8.97-11.98 15.86-13.33 4.06-.79 8.09 1.45 11.32 4.04 3.22 2.6 6.19 5.71 10.07 7.16 5.81 2.19 12.24.21 18.25-1.36 2.16-.56 4.45-1.05 6.72-1.27z" fill="#43af3e"/><path d="m164.9 375.24h-135.48c-8.64-16.37-15.55-33.79-20.49-52.02 4.12.89 8.27 1.29 12.14-.17 3.87-1.45 6.84-4.55 10.06-7.14 3.22-2.6 7.24-4.83 11.3-4.04 6.88 1.34 9.57 10.16 15.83 13.3 5.41 2.72 11.88.54 17.56-1.57 5.67-2.12 12.28-4.08 17.52-1.03 7.45 4.35 7.7 16.38 15.45 20.19 6.57 3.23 15.07-1.35 21.56 2.03 3.55 1.85 5.59 5.66 7.18 9.33 1.58 3.68 3.02 7.6 5.99 10.29 5.07 4.61 10.44-.21 15.83 2.82 2.32 1.31 4.2 3.55 5.14 6.04.08.21.25.99.41 1.97z" fill="#43af3e"/><path d="m382.29 478.14c-23.53 13.38-49.35 23.46-75.66 28.83-2.43.5-4.86.95-7.29 1.37-14.09 2.41-28.57 3.66-43.34 3.66h-.83c-14.49-.05-28.69-1.3-42.51-3.66-2.44-.42-4.88-.87-7.3-1.35-15.3-3.07-30.11-7.5-44.29-13.16-.05-.02-.1-.04-.14-.06-.19-.08-.37-.16-.55-.23 1.92-5.05 5.38-9.63 9.68-12.91 8.37-6.38 19.24-8.56 29.76-8.89 3.22-.1 6.51-.06 9.56-1.09s5.88-3.41 6.41-6.58c.53-3.2-1.4-6.4-4.02-8.3-3.2-2.32-8.23-2.16-8.91-6.68-.62-4.15 2.63-8.09 6.28-9.6 4.1-1.7 8.71-1.33 13.15-1.29 4.44.05 9.23-.38 12.61-3.25 2.56-2.18 3.96-5.65 3.62-9-.75-7.49-6.87-9.1-13.24-8.77-3.22.17-6.58.33-9.53-.97-2.94-1.31-5.29-4.59-4.41-7.69.67-2.33 2.89-3.86 5.11-4.83s4.63-1.6 6.57-3.05c3.22-2.43 4.3-7.12 2.91-10.83-1.6-4.27-6.08-5.29-10.17-5.92-2.5-.39-5.09-.71-7.42-1.64-.63-.25-1.24-.55-1.83-.91-2.36-1.43-3.81-3.78-3.83-6.1h67.47c-.53.91-.92 1.9-1.15 2.94-.08.34-.13.68-.17 1.03-.56 4.94 2.55 10.15 7.25 11.87 3.64 1.34 7.69.71 11.55 1.17s8.13 2.8 8.4 6.67c.4 5.74-7.81 8.57-8.95 14.21-.97 4.75 3.66 8.93 8.33 10.22 4.67 1.3 9.71.87 14.32 2.38 4.6 1.51 8.88 6.25 7.26 10.82-2.19 6.16-12.5 6.12-14.53 12.33-1.12 3.46 1.18 7.3 4.34 9.1s6.95 2.04 10.58 2.13c14.96.38 30.31-.84 44.52 3.82 7.89 2.59 15.42 7.65 20.39 14.21z" fill="#5dbf1d"/><path d="m382.29 478.14c-23.53 13.38-49.35 23.46-75.66 28.83-2.43.5-4.86.95-7.29 1.37-14.09 2.41-28.57 3.66-43.34 3.66v-136.76h14.15c-.53.91-.92 1.9-1.15 2.94-.08.34-.13.68-.17 1.03-.56 4.94 2.55 10.15 7.25 11.87 3.64 1.34 7.69.71 11.55 1.17s8.13 2.8 8.4 6.67c.4 5.74-7.81 8.57-8.95 14.21-.97 4.75 3.66 8.93 8.33 10.22 4.67 1.3 9.71.87 14.32 2.38 4.6 1.51 8.88 6.25 7.26 10.82-2.19 6.16-12.5 6.12-14.53 12.33-1.12 3.46 1.18 7.3 4.34 9.1s6.95 2.04 10.58 2.13c14.96.38 30.31-.84 44.52 3.82 7.89 2.59 15.42 7.65 20.39 14.21z" fill="#53af17"/><g fill="#e2ff94"><path d="m154.955 445.809h-33.888c-5.274 0-9.55-4.276-9.55-9.55 0-5.274 4.276-9.55 9.55-9.55h33.888c5.274 0 9.55 4.276 9.55 9.55.001 5.274-4.275 9.55-9.55 9.55z"/><path d="m393.938 462.72h-6.029c-5.275 0-9.55-4.276-9.55-9.55 0-5.274 4.276-9.55 9.55-9.55h6.029c5.274 0 9.55 4.276 9.55 9.55 0 5.275-4.276 9.55-9.55 9.55z"/><path d="m282.553 488.095h-6.029c-5.275 0-9.55-4.276-9.55-9.55 0-5.274 4.276-9.55 9.55-9.55h6.029c5.274 0 9.55 4.276 9.55 9.55.001 5.274-4.275 9.55-9.55 9.55z"/><path d="m90.267 417.547h-6.029c-5.275 0-9.55-4.276-9.55-9.55 0-5.274 4.276-9.55 9.55-9.55h6.029c5.274 0 9.55 4.276 9.55 9.55 0 5.275-4.276 9.55-9.55 9.55z"/></g><path d="m375.918 414.318h-38.747c-5.274 0-9.55-4.276-9.55-9.55 0-5.274 4.276-9.55 9.55-9.55h38.747c5.274 0 9.55 4.276 9.55 9.55 0 5.274-4.276 9.55-9.55 9.55z" fill="#f6ffd9"/><g><path d="m415.409 416.545h9.882c.597-21.25-8.044-38.484-21.803-44.561 9.255 9.574 14.07 25.885 11.921 44.561z" fill="#53af17"/><path d="m434.884 416.545h-12.776c-.771-27.472 10.4-49.751 28.187-57.608-11.965 12.378-18.189 33.464-15.411 57.608z" fill="#5dbf1d"/></g><g><path d="m130.013 405.716h9.882c.597-21.25-8.044-38.484-21.803-44.561 9.256 9.574 14.07 25.885 11.921 44.561z" fill="#b6e337"/><path d="m149.489 405.716h-12.776c-.771-27.472 10.4-49.751 28.187-57.607-11.965 12.377-18.189 33.463-15.411 57.607z" fill="#6cdc2d"/></g><g><path d="m176.821 375.24h9.882c.597-21.25-8.044-38.484-21.803-44.561 9.256 9.574 14.071 25.885 11.921 44.561z" fill="#b6e337"/><path d="m196.297 375.24h-12.775c-.771-27.472 10.399-49.751 28.187-57.607-11.966 12.377-18.19 33.463-15.412 57.607z" fill="#6cdc2d"/></g><g><path d="m332.996 375.24h-5.449c-.329-11.718 4.436-21.221 12.023-24.572-5.104 5.28-7.759 14.274-6.574 24.572z" fill="#b6e337"/><path d="m322.257 375.24h7.045c.425-15.148-5.734-27.434-15.543-31.766 6.598 6.825 10.03 18.452 8.498 31.766z" fill="#6cdc2d"/></g><g><path d="m489.345 199.727c-.739 10.21-2.717 15.031-7.174 20.762-.318.409-.637.796-.966 1.182-4.332 5.105-9.494 9.994-11.052 16.498-2.069 8.63 2.752 18.135-.557 26.367-2.331 5.787-8.039 9.335-13.292 12.689-9.926 6.333-16.054 16.168-14.622 28.289l-19.465.296-1.683.023-6.174.102c-2.729-6.56 2.467-22.501 7.493-27.527 6.936-6.947 11.586-10.699 18.078-13.61 6.481-2.899 12.905-7.675 14.417-14.622 1.285-5.89-1.239-12.211.534-17.964 1.364-4.434 5.026-7.732 8.755-10.483s7.777-5.276 10.494-9.039c2.717-3.752 4.116-9.221 4.116-12.962h11.098z" fill="#d85e39"/><path d="m489.345 199.727c-.739 10.21-2.717 15.031-7.174 20.762-.318.409-.637.796-.966 1.182-4.332 5.105-9.494 9.994-11.052 16.498-2.069 8.63 2.752 18.135-.557 26.367-2.331 5.787-8.039 9.335-13.292 12.689-9.926 6.333-16.054 16.168-14.622 28.289l-19.465.296-1.683.023c.523-5.662.659-11.939 2.069-17.362 4.855-18.681 27.595-22.785 32.836-29.073 5.23-6.288 2.956-18.306 3.229-25.139s6.015-10.119 14.713-16.737c5.321-4.048 7.118-12.132 7.709-17.794h8.255z" fill="#b15848"/><path d="m489.345 199.727c-.739 10.21-2.717 15.031-7.174 20.762-.318.409-.637.796-.966 1.182-4.332 5.105-9.494 9.994-11.052 16.498-2.069 8.63 2.752 18.135-.557 26.367-2.331 5.787-8.039 9.335-13.292 12.689-9.926 6.333-16.054 16.168-14.622 28.289l-16.329.296c0-11.938 5.24-21.039 15.922-28.757 14.611-10.558 16.035-9.902 19.264-16.918 3.24-7.015 1.209-18.348 2.824-25.488 1.626-7.14 7.141-10.905 14.418-17.92 4.559-4.389 5.947-11.95 6.344-16.998h5.22z" fill="#a44e3e"/><path d="m433.928 327.616c-17.123.455-34.235.91-51.358 1.364-5.355.136-11.256.091-15.281-3.445-4.855-4.264-5.071-11.995-9.448-16.748-4.525-4.889-12.007-5.264-18.669-5.276-6.663 0-14.133-.307-18.715-5.151-3.047-3.229-4.127-7.823-4.684-12.223s-3.968-19.238-3.968-19.238h6.401c1.035 1.808 3.513 17.089 6.97 21.319 4.537 5.56 12.791 5.287 19.977 5.094 9.63-.273 17.407-.75 23.843 2.433 5.082 2.524 5.719 5.878 9.755 9.869 8.243 8.152 20.648 4.73 31.279 4.673 7.015-.046 14.031-.091 21.057-.125.353 1.865.66 3.707.932 5.537.25 1.569.478 3.138.716 4.707.363 2.389.739 4.776 1.193 7.21z" fill="#d85e39"/><path d="m433.928 327.616c-17.123.455-34.235.91-51.358 1.364-5.355.136-11.256.091-15.281-3.445-4.855-4.264-5.071-11.995-9.448-16.748-4.525-4.889-12.007-5.264-18.669-5.276-6.663 0-14.133-.307-18.715-5.151-3.047-3.229-4.127-7.823-4.684-12.223s-3.968-19.238-3.968-19.238h4.605c1.308 7.152 4.434 21.648 8.812 25.355 5.878 4.98 10.858 4.298 18.772 4.07 7.913-.216 21.705-1.66 25.548 4.036s5.662 15.872 16.054 15.872c6.163 0 29.062-.443 46.423-.534.25 1.569.478 3.138.716 4.707.363 2.39.739 4.777 1.193 7.211z" fill="#b15848"/><path d="m433.928 327.616c-17.123.455-34.235.91-51.358 1.364-5.355.136-11.256.091-15.281-3.445-4.855-4.264-5.071-11.995-9.448-16.748-4.525-4.889-12.007-5.264-18.669-5.276-6.663 0-14.133-.307-18.715-5.151-3.047-3.229-4.127-7.823-4.684-12.223s-3.968-19.238-3.968-19.238h3.104c1.978 8.721 6.197 25.412 10.301 29.039 5.628 4.969 15.997 2.672 23.786 2.842 7.777.182 16.214.898 19.454 7.891s4.104 14.337 12.109 14.337c5.185 0 33.382-.569 52.177-.603.362 2.39.738 4.777 1.192 7.211z" fill="#a44e3e"/><path d="m497.6 340.85c-2.89 8.23-6.19 16.26-9.88 24.08-1.64 3.48-3.36 6.92-5.15 10.31-.22.42-.44.84-.67 1.26-1.75 3.3-3.58 6.55-5.48 9.75-2.64 4.46-5.42 8.84-8.32 13.12.3-9.88-3.8-19.91-11.17-26.55-6.3-5.66-14.76-9-19.66-15.92-5.82-8.22-5.17-19.35-9.15-28.6-5.91-13.76-18.83-18.33-29.72-26.82-10.47-8.17-16.86-15.7-20.22-28.54-2.09-7.97-3.13-20.17-8.93-26.69-3.58-4.02-7.78-6.91-12.52-8.84-1.86-.77-3.8-1.39-5.82-1.87-10.03-2.39-12.96-4.18-23.1-6.04-20.71-3.78-24.14-26.93-24.22-37.24h2.15 8.52c-.44 0 2.44 9.38 2.71 10.12 2.04 5.87 4.5 9.81 10.58 12.34 3.97 1.65 8.27 2.31 12.52 2.95 12.59 1.9 27.32 2.85 38.76 8.99 5.8 3.1 10.75 7.53 14.16 14.08 5.12 9.86 4.55 22.36 11.49 31.03 10.61 13.24 32.67 10.62 44.91 22.35 6.55 6.28 9.06 15.3 13.59 22.92 6.32 10.64 16.71 14.35 27.33 19.89 2.44 1.28 4.89 2.56 7.29 3.92z" fill="#d85e39"/><path d="m497.6 340.85c-2.89 8.23-6.19 16.26-9.88 24.08-1.64 3.48-3.36 6.92-5.15 10.31-.22.42-.44.84-.67 1.26-4.59-11.48-15.74-12.99-25.57-20.08-12.24-8.83-16.31-17.45-18.58-26.66-2.26-9.19-6.66-19.6-15.53-23.95-8.87-4.36-24.03-9.97-30.84-18.73-6.81-8.75-9.73-23.99-13.94-39.55-1.56-5.78-7.05-9.86-14.25-13-12.21-5.34-29.33-7.98-40.55-11.65-12.74-4.17-16.04-21.2-16.9-30.62h8.52c-.44 0 2.44 9.38 2.71 10.12 2.04 5.87 4.5 9.81 10.58 12.34 3.97 1.65 8.27 2.31 12.52 2.95 12.59 1.9 27.32 2.85 38.76 8.99 5.8 3.1 10.75 7.53 14.16 14.08 5.12 9.86 4.55 22.36 11.49 31.03 10.61 13.24 32.67 10.62 44.91 22.35 6.55 6.28 9.06 15.3 13.59 22.92 6.32 10.64 16.71 14.35 27.33 19.89 2.44 1.28 4.89 2.56 7.29 3.92z" fill="#b15848"/><path d="m497.6 340.85c-2.89 8.23-6.19 16.26-9.88 24.08-5.4-5.95-12.51-10.96-19.3-16.47-13.13-10.67-20.77-13.39-27.15-31.71-7.47-21.44-31.03-19.54-41.27-31.44-10.23-11.91-9.29-20.19-15.9-37.88-2.75-7.37-8.58-11.83-16.24-15.11-10.93-4.68-25.59-6.96-40.34-11.88-14.43-4.8-18.51-17.29-19.31-28.18h6.05c-.44 0 2.44 9.38 2.71 10.12 2.04 5.87 4.5 9.81 10.58 12.34 3.97 1.65 8.27 2.31 12.52 2.95 12.59 1.9 27.32 2.85 38.76 8.99 5.8 3.1 10.75 7.53 14.16 14.08 5.12 9.86 4.55 22.36 11.49 31.03 10.61 13.24 32.67 10.62 44.91 22.35 6.55 6.28 9.06 15.3 13.59 22.92 6.32 10.64 16.71 14.35 27.33 19.89 2.44 1.28 4.89 2.56 7.29 3.92z" fill="#a44e3e"/></g><g><path d="m347.891 288.47h-72.911c-4.38 0-7.637-4.278-6.227-8.426.009-.027.019-.055.028-.082.956-2.801 2.592-5.445 5-7.173 2.395-1.741 6.191-2.827 8.992-1.832 0-4.333 2.5-8.56 6.283-10.668 3.783-2.094 9.149-2.016 12.827.262 1.963-5.786 7.775-10.066 13.901-10.21 6.113-.144 12.173 3.861 14.398 9.555 4.424-2.304 10.275-1.492 13.901 1.937s4.948 9.607 2.893 14.162c2.853.419 5.223 3.024 5.38 5.903.155 2.881-1.573 6.572-4.465 6.572z" fill="#6cdc2d"/><path d="m334.316 288.47h-45.964c-2.761 0-4.814-2.697-3.926-5.312.006-.017.012-.034.018-.052.602-1.766 1.634-3.433 3.152-4.522 1.51-1.098 3.903-1.782 5.669-1.155 0-2.731 1.576-5.397 3.961-6.725 2.385-1.32 5.768-1.271 8.086.165 1.238-3.647 4.901-6.345 8.763-6.436 3.853-.091 7.674 2.434 9.077 6.024 2.789-1.452 6.478-.941 8.763 1.221 2.286 2.162 3.119 6.057 1.824 8.928 1.799.264 3.292 1.906 3.391 3.721.099 1.816-.991 4.143-2.814 4.143z" fill="#5dbf1d"/></g><g><path d="m509.98 223.81h-72.19c-2.9 0-4.62-3.69-4.47-6.57.16-2.88 2.53-5.49 5.38-5.91-2.05-4.55-.73-10.73 2.9-14.16 3.62-3.43 9.47-4.24 13.9-1.94 2.22-5.69 8.28-9.7 14.39-9.55 6.13.14 11.94 4.42 13.9 10.21 3.68-2.28 9.05-2.36 12.83-.26s6.28 6.33 6.28 10.66c1.28-.45 2.77-.47 4.24-.19 1.15 5.84 2.11 11.74 2.84 17.71z" fill="#6cdc2d"/><path d="m451.361 223.806h45.964c2.762 0 4.814-2.697 3.926-5.312-.006-.017-.012-.035-.018-.052-.602-1.766-1.634-3.433-3.152-4.522-1.51-1.098-3.903-1.782-5.669-1.155 0-2.731-1.576-5.396-3.961-6.725-2.385-1.32-5.768-1.271-8.086.165-1.238-3.647-4.901-6.345-8.763-6.436-3.853-.091-7.674 2.434-9.077 6.023-2.789-1.452-6.478-.941-8.763 1.221-2.286 2.162-3.119 6.057-1.824 8.928-1.799.264-3.292 1.906-3.391 3.721-.098 1.817.991 4.144 2.814 4.144z" fill="#5dbf1d"/></g><g><path d="m352.306 208.755h-88.639c-5.325 0-9.284-5.201-7.57-10.243.011-.033.023-.067.034-.1 1.162-3.405 3.151-6.62 6.079-8.72 2.912-2.116 7.527-3.437 10.932-2.228 0-5.267 3.039-10.407 7.638-12.969 4.599-2.546 11.123-2.451 15.594.318 2.387-7.033 9.452-12.237 16.899-12.412 7.431-.175 14.799 4.694 17.504 11.616 5.378-2.801 12.491-1.814 16.899 2.355s6.015 11.68 3.517 17.217c3.469.509 6.349 3.676 6.54 7.177.19 3.502-1.911 7.989-5.427 7.989z" fill="#6cdc2d"/><path d="m335.803 208.755h-55.879c-3.357 0-5.853-3.279-4.773-6.458.007-.021.014-.042.022-.063.732-2.147 1.986-4.173 3.832-5.497 1.836-1.334 4.745-2.167 6.892-1.404 0-3.32 1.916-6.561 4.815-8.176 2.899-1.605 7.012-1.545 9.831.201 1.505-4.434 5.959-7.714 10.654-7.825 4.685-.11 9.329 2.959 11.035 7.323 3.391-1.766 7.875-1.144 10.653 1.485 2.779 2.628 3.792 7.363 2.217 10.854 2.187.321 4.003 2.317 4.123 4.524.119 2.207-1.205 5.036-3.422 5.036z" fill="#5dbf1d"/></g></g><g><path d="m186.726 212.191c.001-.093.007-.185.007-.278 0-17.044-13.817-30.86-30.86-30.86-4.049 0-7.912.788-11.455 2.205-6.843-12.26-19.937-20.555-34.974-20.555-19.528 0-35.781 13.985-39.314 32.484-1.053-.151-2.129-.233-3.223-.233-10.617 0-19.513 7.35-21.89 17.237z" fill="#fff"/><path d="m156.616 212.191c0-.054.004-.106.004-.16 0-9.801-7.945-17.745-17.745-17.745-2.328 0-4.55.453-6.587 1.268-3.935-7.05-11.464-11.819-20.111-11.819-11.229 0-20.575 8.041-22.606 18.679-.606-.087-1.224-.134-1.853-.134-6.105 0-11.22 4.226-12.588 9.912h81.486z" fill="#dff7fd"/></g><g><path d="m166.323 87.548c-.001-.075-.006-.149-.006-.224 0-13.744 11.142-24.886 24.886-24.886 3.265 0 6.38.635 9.237 1.778 5.518-9.886 16.078-16.576 28.204-16.576 15.747 0 28.854 11.278 31.703 26.195.849-.122 1.716-.188 2.599-.188 8.562 0 15.735 5.927 17.653 13.9h-114.276z" fill="#fff"/><path d="m190.604 87.548c0-.043-.003-.086-.003-.129 0-7.903 6.407-14.31 14.31-14.31 1.878 0 3.669.365 5.312 1.023 3.173-5.685 9.245-9.531 16.218-9.531 9.055 0 16.592 6.485 18.23 15.063.488-.07.987-.108 1.494-.108 4.923 0 9.048 3.408 10.151 7.993h-65.712z" fill="#dff7fd"/></g><g><path d="m421.699 148.954c0-.075.005-.149.005-.224 0-13.744-11.142-24.886-24.886-24.886-3.265 0-6.38.635-9.237 1.779-5.518-9.886-16.078-16.576-28.204-16.576-15.747 0-28.854 11.277-31.703 26.195-.849-.122-1.716-.188-2.599-.188-8.562 0-15.735 5.927-17.653 13.9z" fill="#fff"/><path d="m397.417 148.954c0-.043.003-.086.003-.129 0-7.903-6.407-14.31-14.31-14.31-1.878 0-3.669.365-5.312 1.023-3.173-5.685-9.245-9.532-16.218-9.532-9.055 0-16.592 6.485-18.23 15.063-.488-.07-.987-.108-1.494-.108-4.923 0-9.048 3.408-10.151 7.993z" fill="#dff7fd"/></g></g></g></svg>